<?xml version="1.0" encoding="utf-8"?>
<!-- Generator: Adobe Illustrator 24.2.0, SVG Export Plug-In . SVG Version: 6.00 Build 0)  -->
<svg version="1.1" id="Layer_1" xmlns="http://www.w3.org/2000/svg" xmlns:xlink="http://www.w3.org/1999/xlink" x="0px" y="0px"
	 viewBox="0 0 445 495" style="enable-background:new 0 0 445 495;" xml:space="preserve">
<style type="text/css">
	.st0{fill:#474647;}
	.st1{fill:#F4C522;}
	.st2{display:none;}
	.st3{display:inline;fill:#BCBEC0;}
</style>
<g id="LOGO">
	<g id="logo">
		<g>
			<path class="st0" d="M276.2,456.9H379L284.2,38H162L66,457h103.7l53.1-338.7L276.2,456.9z"/>
			<path class="st1" d="M378.7,151.8c-30,118.1-137.1,205.5-264.6,205.5c-16.3,0-32.3-1.4-47.8-4.2v-61.6
				c22.2,5.8,45.4,8.9,69.4,8.9C241.6,300.4,333.5,240,378.7,151.8z"/>
		</g>
	</g>
</g>
<g id="GUIDE" class="st2">
	<path class="st3" d="M396,346.6h48.6l-44.9-198.3H342l-45.4,198.3h49.1l25.1-160.3L396,346.6z"/>
	<path class="st3" d="M321.6,48.7V0L123.4,44.9v57.9l198.3,45.4V99.1L161.4,73.9L321.6,48.7z"/>
	<path class="st3" d="M99.8,346.6h48.6l-44.9-198.3H45.7L0.3,346.6h49.1l25.1-160.3L99.8,346.6z"/>
	<path class="st3" d="M283.6,423.4l-160.3,25.1v49.1l198.3-45.4v-57.9l-198.3-44.9v48.6L283.6,423.4z"/>
</g>
</svg>
